# xmcd
#
# Track frame offsets: 
#        150
#        11891
#        29464
#        40406
#        54362
#        66203
#        77324
#        89727
#        101015
#        124278
#        137652
#        146667
#
# Disc length: 2058 seconds
#
# Revision: 0
# Processed by: cddbd v1.5.2PL0 Copyright (c) Steve Scherf et al.
# Submitted via: ExactAudioCopy v0.99pb4
#
DISCID=a808080c
DTITLE=The Statler Brothers - Gospel Favorites [CD1]
DYEAR=1992
DGENRE=Gospel
TTITLE0=When the Roll is Called Up Yonder
TTITLE1=Rock of Ages
TTITLE2=Noah Found Grace in the Eyes of the Lord
TTITLE3=The Old Rugged Cross
TTITLE4=Blessed Be
TTITLE5=One Size Fits All
TTITLE6=Sweet By and By
TTITLE7=Turn Your Radio On
TTITLE8=Amazing Grace
TTITLE9=Love Lifted Me
TTITLE10=There is Power in the Blood
TTITLE11=This Ole House
EXTD=
EXTT0=
EXTT1=
EXTT2=
EXTT3=
EXTT4=
EXTT5=
EXTT6=
EXTT7=
EXTT8=
EXTT9=
EXTT10=
EXTT11=
PLAYORDER=
